<svg width="24" height="24" viewBox="0 0 24 24" fill="none" xmlns="http://www.w3.org/2000/svg">
<g id="34) icon/home">
<path id="Mask" fill-rule="evenodd" clip-rule="evenodd" d="M21.6 8.2168L12.6 1.22474C12.2 0.925085 11.7 0.925085 11.4 1.22474L2.4 8.2168C2.1 8.41657 2 8.71623 2 9.01589V20.0034C2 21.7015 3.3 23 5 23H19C20.7 23 22 21.7015 22 20.0034V9.01589C22 8.71623 21.9 8.41657 21.6 8.2168ZM14 13.0113V21.0022H9.99999V13.0113H14ZM19 21.0022C19.6 21.0022 20 20.6026 20 20.0033V9.51523L12 3.32227L3.99999 9.51523V20.0033C3.99999 20.6026 4.39999 21.0022 4.99999 21.0022H7.99999V12.0124C7.99999 11.4131 8.39999 11.0135 8.99999 11.0135H15C15.6 11.0135 16 11.4131 16 12.0124V21.0022H19Z" fill="#14142B"/>
<mask id="mask0_5576_19778" style="mask-type:luminance" maskUnits="userSpaceOnUse" x="2" y="1" width="20" height="22">
<path id="Mask_2" fill-rule="evenodd" clip-rule="evenodd" d="M21.6 8.2168L12.6 1.22474C12.2 0.925085 11.7 0.925085 11.4 1.22474L2.4 8.2168C2.1 8.41657 2 8.71623 2 9.01589V20.0034C2 21.7015 3.3 23 5 23H19C20.7 23 22 21.7015 22 20.0034V9.01589C22 8.71623 21.9 8.41657 21.6 8.2168ZM14 13.0113V21.0022H9.99999V13.0113H14ZM19 21.0022C19.6 21.0022 20 20.6026 20 20.0033V9.51523L12 3.32227L3.99999 9.51523V20.0033C3.99999 20.6026 4.39999 21.0022 4.99999 21.0022H7.99999V12.0124C7.99999 11.4131 8.39999 11.0135 8.99999 11.0135H15C15.6 11.0135 16 11.4131 16 12.0124V21.0022H19Z" fill="white"/>
</mask>
<g mask="url(#mask0_5576_19778)">
<g id="Icon Color">
<g id="&#240;&#159;&#142;&#168; Icon Color">
<rect width="24" height="24" fill="#37474F"/>
<rect width="24" height="24" fill="#37474F"/>
</g>
</g>
</g>
</g>
</svg>
